<svg xmlns="http://www.w3.org/2000/svg" viewBox="0 0 64 64">
  <circle cx="32" cy="32" r="26" fill="#1E4E8C"/>
  <circle cx="32" cy="32" r="17" fill="#FFFFFF"/>
  <circle cx="32" cy="32" r="7" fill="#1E4E8C"/>
  <g fill="#FFFFFF">
    <rect x="29" y="4" width="6" height="10" rx="2"/>
    <rect x="29" y="50" width="6" height="10" rx="2"/>
    <rect x="4" y="29" width="10" height="6" rx="2"/>
    <rect x="50" y="29" width="10" height="6" rx="2"/>
    <rect x="10" y="10" width="6" height="10" rx="2" transform="rotate(45 13 15)"/>
    <rect x="48" y="10" width="6" height="10" rx="2" transform="rotate(-45 51 15)"/>
    <rect x="10" y="44" width="6" height="10" rx="2" transform="rotate(-45 13 49)"/>
    <rect x="48" y="44" width="6" height="10" rx="2" transform="rotate(45 51 49)"/>
  </g>
</svg>
